:SAMPLES-PER-SECOND 30
:FULLY-SPECIFIED
:DEGREES
210
root  -3.03814 40.9152 0.675071 157.85 -89.5727 -158.012
RightUpLeg  4.58998 -1.7922 -1.47334
RightLeg  -1.56331 -19.2338 0.881714
RightFoot  -1.26534 -0.294994 3.21364
RightToes  -3.13006e-008 1.75238e-005 3.56266e-009
Spine  -6.28006 -5.30624 -9.37335
Spine1  15.8967 -5.98804 3.5311
HEad  0.511961 -20.4659 -3.42174
LeftShoulder1  2.03675 -3.17247 -24.2948
LeftArm  -44.3221 25.8725 -57.403
LeftForeArm  118.438 -63.8908 -154.844
LeftHand  -0.160232 -0.971174 3.03932
RightShoulder  0.788905 -0.3301 18.4555
RightArm  -88.4916 -18.2318 18.3344
RightForeArm  69.6089 76.9641 114.341
RightHand  -2.16771 8.91491 -17.7982
LeftUpLeg  3.63329 1.44301 2.39722
LeftLeg  -1.22646 12.7408 -0.713873
LeftFoot  -1.27114 0.256192 -2.82155
LeftToes  4.76866e-008 1.46233e-008 1.30548e-009
211
root  -3.05778 40.9142 0.681507 171.497 -88.7046 -171.863
RightUpLeg  4.76175 -1.69173 -1.40451
RightLeg  -1.60728 -18.4713 0.796533
RightFoot  -1.20934 -0.30004 3.29982
RightToes  -3.13006e-008 1.75238e-005 3.56266e-009
Spine  -6.57559 -5.06623 -9.26277
Spine1  16.2924 -5.73265 3.51944
HEad  0.138828 -19.9018 -3.58105
LeftShoulder1  1.98304 -3.03609 -24.0985
LeftArm  -44.041 26.1449 -57.0016
LeftForeArm  118.746 -63.8721 -154.89
LeftHand  -0.164397 -0.979193 3.11242
RightShoulder  0.890941 0.0498233 18.6736
RightArm  -87.1134 -18.3222 18.3832
RightForeArm  70.3665 76.9123 114.911
RightHand  -2.09549 9.06862 -17.0511
LeftUpLeg  4.04505 1.56901 2.47479
LeftLeg  -1.29913 13.4561 -0.776329
LeftFoot  -1.38207 0.259501 -2.8904
LeftToes  4.76866e-008 1.46233e-008 1.30548e-009
212
root  -3.0698 40.9131 0.693455 175.021 -87.6554 -175.539
RightUpLeg  4.70748 -1.56681 -1.38971
RightLeg  -1.36739 -17.5566 0.567526
RightFoot  -1.26111 -0.304654 3.37803
RightToes  -3.13006e-008 1.75238e-005 3.56266e-009
Spine  -6.90407 -4.66642 -8.65415
Spine1  16.5198 -5.13673 2.86243
HEad  -0.326155 -19.9317 -3.88411
LeftShoulder1  1.95073 -2.98943 -23.8058
LeftArm  -43.6576 26.1748 -56.5739
LeftForeArm  119.038 -63.8914 -154.894
LeftHand  -0.167611 -1.13862 3.10709
RightShoulder  0.922276 0.129571 19.0077
RightArm  -86.1579 -17.6463 18.5654
RightForeArm  71.2059 76.8185 115.787
RightHand  -2.10176 9.11673 -17.0461
LeftUpLeg  4.47708 1.68651 2.48636
LeftLeg  -1.51343 14.3583 -0.91824
LeftFoot  -1.41107 0.263825 -2.97587
LeftToes  4.76866e-008 1.46233e-008 1.30548e-009
213
root  -3.08442 40.9119 0.726392 173.655 -87.1453 -174.251
RightUpLeg  4.75562 -1.57488 -1.38622
RightLeg  -1.3763 -17.0587 0.59959
RightFoot  -1.20673 -0.30385 3.3703
RightToes  -3.13006e-008 1.75238e-005 3.56266e-009
Spine  -7.11358 -4.55107 -7.96564
Spine1  16.4437 -4.84985 2.19574
HEad  -0.459835 -19.5026 -3.88892
LeftShoulder1  1.9533 -3.02543 -23.6715
LeftArm  -43.4706 26.0051 -56.1237
LeftForeArm  118.819 -63.9693 -154.793
LeftHand  -0.146715 -0.696767 2.89107
RightShoulder  0.991188 0.355053 19.3289
RightArm  -85.1834 -16.8826 18.4936
RightForeArm  71.3836 76.8453 115.64
RightHand  -2.03926 8.71682 -17.0053
LeftUpLeg  4.63534 1.701 2.49222
LeftLeg  -1.47865 14.8582 -0.862994
LeftFoot  -1.54867 0.270694 -3.10136
LeftToes  4.76866e-008 1.46233e-008 1.30548e-009
214
root  -3.10867 40.9108 0.74966 173.735 -86.7288 -174.461
RightUpLeg  4.89135 -1.58185 -1.40935
RightLeg  -1.36149 -16.6456 0.562818
RightFoot  -1.22299 -0.30079 3.32509
RightToes  -3.13006e-008 1.75238e-005 3.56266e-009
Spine  -7.21863 -4.46548 -7.70398
Spine1  16.3313 -4.71815 2.02594
HEad  -0.650522 -19.1026 -3.77222
LeftShoulder1  1.85281 -2.6896 -23.6691
LeftArm  -43.2145 25.6732 -56.1434
LeftForeArm  118.992 -64.1364 -154.63
LeftHand  -0.135604 -0.801733 2.64192
RightShoulder  1.12155 0.854981 19.3598
RightArm  -84.4952 -16.4193 18.5324
RightForeArm  71.5571 77.001 114.557
RightHand  -2.03205 8.6967 -16.9687
LeftUpLeg  4.90005 1.68888 2.4318
LeftLeg  -1.53999 15.3019 -0.835021
LeftFoot  -1.56287 0.253967 -2.8597
LeftToes  4.76866e-008 1.46233e-008 1.30548e-009
215
root  -3.13526 40.9098 0.756176 174.267 -86.3752 -175.142
RightUpLeg  5.02602 -1.59968 -1.4502
RightLeg  -1.29826 -16.2299 0.501544
RightFoot  -1.24166 -0.310658 3.47741
RightToes  -3.13006e-008 1.75238e-005 3.56266e-009
Spine  -7.23954 -4.26211 -7.5584
Spine1  16.1032 -4.49184 1.99214
HEad  -0.952674 -19.2218 -3.61043
LeftShoulder1  1.93881 -2.9508 -23.7979
LeftArm  -43.2029 25.4136 -56.0039
LeftForeArm  119.494 -64.2813 -154.518
LeftHand  -0.141502 -0.895596 2.71764
RightShoulder  1.1926 1.1057 19.5071
RightArm  -83.7326 -16.268 18.2994
RightForeArm  71.453 77.088 113.88
RightHand  -2.12845 9.11824 -17.2527
LeftUpLeg  5.12406 1.7211 2.41054
LeftLeg  -1.47426 15.6066 -0.828594
LeftFoot  -1.68302 0.257638 -2.93509
LeftToes  4.76866e-008 1.46233e-008 1.30548e-009
216
root  -3.16118 40.9088 0.775289 173.706 -86.2783 -174.648
RightUpLeg  5.16696 -1.6575 -1.48493
RightLeg  -1.36694 -16.0225 0.555591
RightFoot  -1.24468 -0.314346 3.53014
RightToes  -3.13006e-008 1.75238e-005 3.56266e-009
Spine  -7.36056 -4.07768 -7.30548
Spine1  15.9177 -4.27066 1.88153
HEad  -0.926666 -18.9963 -3.45516
LeftShoulder1  2.00693 -3.13585 -23.9999
LeftArm  -42.8629 24.8494 -56.1447
LeftForeArm  120.385 -64.5157 -154.34
LeftHand  -0.165692 -0.95771 3.14521
RightShoulder  1.1964 1.06217 19.8677
RightArm  -83.1289 -16.1505 18.0208
RightForeArm  70.9499 77.1486 113.28
RightHand  -2.04168 8.7959 -16.9358
LeftUpLeg  5.23925 1.72911 2.40465
LeftLeg  -1.45116 15.6885 -0.800724
LeftFoot  -1.76226 0.255154 -2.91395
LeftToes  4.76866e-008 1.46233e-008 1.30548e-009
217
root  -3.18918 40.9077 0.789276 173.091 -86.2947 -174.084
RightUpLeg  5.30475 -1.68677 -1.48318
RightLeg  -1.46051 -16.0159 0.60945
RightFoot  -1.22448 -0.311169 3.47204
RightToes  -3.13006e-008 1.75238e-005 3.56266e-009
Spine  -7.79196 -4.01504 -7.04502
Spine1  16.2372 -4.13275 1.6288
HEad  -0.708597 -18.7784 -3.18633
LeftShoulder1  1.97078 -2.99839 -24.0844
LeftArm  -42.5648 23.826 -56.4766
LeftForeArm  120.468 -64.8582 -153.969
LeftHand  -0.154487 -0.879484 2.969
RightShoulder  1.17315 0.907934 20.2877
RightArm  -82.8209 -15.5991 18.0498
RightForeArm  70.5869 77.2394 112.464
RightHand  -2.04378 9.03968 -16.6765
LeftUpLeg  5.31466 1.78191 2.44271
LeftLeg  -1.38728 15.6182 -0.802685
LeftFoot  -1.8361 0.255414 -2.93434
LeftToes  4.76866e-008 1.46233e-008 1.30548e-009
218
root  -3.20582 40.9064 0.804284 172.618 -86.4261 -173.635
RightUpLeg  5.38526 -1.70492 -1.50077
RightLeg  -1.46416 -16.1663 0.61137
RightFoot  -1.2398 -0.322805 3.6389
RightToes  -3.13006e-008 1.75238e-005 3.56266e-009
Spine  -7.89241 -4.07795 -7.10375
Spine1  16.1949 -4.23623 1.78025
HEad  -0.554257 -18.0808 -3.77032
LeftShoulder1  2.01091 -3.08496 -24.3079
LeftArm  -42.5911 23.6229 -56.8319
LeftForeArm  120.406 -64.7795 -154.05
LeftHand  -0.141821 -1.02404 2.68278
RightShoulder  1.19412 0.968201 20.4056
RightArm  -82.294 -15.2477 18.1591
RightForeArm  70.1034 77.2841 111.964
RightHand  -2.10325 8.98617 -17.2056
LeftUpLeg  5.33221 1.9047 2.51836
LeftLeg  -1.34383 15.3404 -0.913088
LeftFoot  -1.88761 0.248921 -2.84699
LeftToes  4.76866e-008 1.46233e-008 1.30548e-009
219
root  -3.21482 40.9046 0.81716 171.276 -86.5852 -172.369
RightUpLeg  5.49527 -1.73667 -1.47849
RightLeg  -1.45177 -16.329 0.66094
RightFoot  -1.26874 -0.32738 3.69071
RightToes  -3.13006e-008 1.75238e-005 3.56266e-009
Spine  -8.15741 -4.34758 -7.41157
Spine1  16.5227 -4.60262 2.12088
HEad  -1.1191 -16.392 -3.80188
LeftShoulder1  2.04602 -3.21536 -24.2329
LeftArm  -42.6367 23.1745 -57.4574
LeftForeArm  120.048 -64.8874 -153.898
LeftHand  -0.139477 -0.973032 2.65611
RightShoulder  1.25529 1.1757 20.5357
RightArm  -81.434 -13.4804 18.5773
RightForeArm  70.4584 77.4545 110.635
RightHand  -2.11886 8.93035 -17.3918
LeftUpLeg  5.36718 1.80986 2.4834
LeftLeg  -1.25644 15.275 -0.737171
LeftFoot  -1.93434 0.250707 -2.88539
LeftToes  4.76866e-008 1.46233e-008 1.30548e-009
220
root  -3.21629 40.901 0.839003 171.461 -86.4145 -172.716
RightUpLeg  5.6161 -1.73777 -1.50562
RightLeg  -1.37818 -16.1523 0.598994
RightFoot  -1.29021 -0.325794 3.64076
RightToes  -3.13006e-008 1.75238e-005 3.56266e-009
Spine  -8.08642 -4.59542 -7.8068
Spine1  16.5102 -4.99598 2.5993
HEad  -2.6455 -14.0628 -3.61026
LeftShoulder1  2.22096 -3.7638 -24.3551
LeftArm  -42.4347 22.9285 -57.4055
LeftForeArm  119.476 -65.1277 -153.569
LeftHand  -0.17553 -1.01883 3.29801
RightShoulder  1.3179 1.38447 20.6687
RightArm  -79.9201 -9.97115 19.025
RightForeArm  71.8017 77.6018 109.769
RightHand  -2.06573 8.90252 -17.0037
LeftUpLeg  5.56937 1.81866 2.44066
LeftLeg  -1.2567 15.4265 -0.727808
LeftFoot  -1.96369 0.248597 -2.86217
LeftToes  4.76866e-008 1.46233e-008 1.30548e-009
221
root  -3.21396 40.8993 0.888526 172.469 -85.5626 -173.859
RightUpLeg  5.52215 -1.71838 -1.58161
RightLeg  -1.11397 -15.3129 0.462857
RightFoot  -1.32938 -0.33313 3.72258
RightToes  -3.13006e-008 1.75238e-005 3.56266e-009
Spine  -7.84379 -4.62894 -7.91685
Spine1  15.9743 -5.15043 2.97905
HEad  -4.72093 -10.5784 -3.13977
LeftShoulder1  2.29805 -3.99994 -24.4208
LeftArm  -40.9385 22.3017 -56.5685
LeftForeArm  118.489 -65.8586 -152.607
LeftHand  -0.19896 -0.983661 3.74638
RightShoulder  1.45258 1.81076 21.0721
RightArm  -76.3808 -5.16479 18.6854
RightForeArm  75.651 77.6507 110.581
RightHand  -2.11022 8.747 -17.5313
LeftUpLeg  5.935 1.87433 2.37763
LeftLeg  -1.49907 16.2297 -0.860759
LeftFoot  -1.96541 0.246684 -2.84117
LeftToes  4.76866e-008 1.46233e-008 1.30548e-009
